{
  "accessors": [
    {
      "bufferView": 2,
      "componentType": 5126,
      "count": 604,
      "max": [
        0.08723962306976318,
        0.018548395484685898,
        0.056679725646972656
      ],
      "min": [
        -0.08723962306976318,
        -0.10050705820322037,
        -0.008630990982055664
      ],
      "type": "VEC3"
    },
    {
      "bufferView": 2,
      "byteOffset": 7248,
      "componentType": 5126,
      "count": 604,
      "max": [
        0.9914961457252502,
        0.9991792440414429,
        0.9999685287475586
      ],
      "min": [
        -0.9914960861206055,
        -0.9996736645698547,
        -0.9927725791931152
      ],
      "type": "VEC3"
    },
    {
      "bufferView": 1,
      "componentType": 5126,
      "count": 604,
      "max": [
        0.9619041085243225,
        0.9521990418434143
      ],
      "min": [
        0.038095902651548386,
        0.03809589147567749
      ],
      "type": "VEC2"
    },
    {
      "bufferView": 0,
      "componentType": 5125,
      "count": 2994,
      "type": "SCALAR"
    },
    {
      "bufferView": 2,
      "byteOffset": 14496,
      "componentType": 5126,
      "count": 92,
      "max": [
        0.06438348442316055,
        -0.08270206302404404,
        0.05068063735961914
      ],
      "min": [
        -0.06438348442316055,
        -0.09478944540023804,
        -0.0023720264434814453
      ],
      "type": "VEC3"
    },
    {
      "bufferView": 2,
      "byteOffset": 15600,
      "componentType": 5126,
      "count": 92,
      "max": [
        0.2039954513311386,
        -0.9763603806495667,
        -0.0705130472779274
      ],
      "min": [
        -0.20399543642997742,
        -0.976514995098114,
        -0.07145887613296509
      ],
      "type": "VEC3"
    },
    {
      "bufferView": 1,
      "byteOffset": 4832,
      "componentType": 5126,
      "count": 92,
      "max": [
        0.714759886264801,
        0.6399758458137512
      ],
      "min": [
        0.46080437302589417,
        0.03809589147567749
      ],
      "type": "VEC2"
    },
    {
      "bufferView": 0,
      "byteOffset": 11976,
      "componentType": 5125,
      "count": 264,
      "type": "SCALAR"
    }
  ],
  "asset": {
    "extras": {
      "author": "ayumi ikeda (https://sketchfab.com/rxf10240)",
      "license": "CC-BY-4.0 (http://creativecommons.org/licenses/by/4.0/)",
      "source": "https://sketchfab.com/3d-models/party-glasses-heart-type-64d55cb8c3e84f4f8f4cff206e74ac25",
      "title": "Party Glasses (Heart type)💮📷"
    },
    "generator": "Sketchfab-11.71.0",
    "version": "2.0"
  },
  "bufferViews": [
    {
      "buffer": 0,
      "byteLength": 13032,
      "name": "floatBufferViews",
      "target": 34963
    },
    {
      "buffer": 0,
      "byteLength": 5568,
      "byteOffset": 13032,
      "byteStride": 8,
      "name": "floatBufferViews",
      "target": 34962
    },
    {
      "buffer": 0,
      "byteLength": 16704,
      "byteOffset": 18600,
      "byteStride": 12,
      "name": "floatBufferViews",
      "target": 34962
    }
  ],
  "buffers": [
    {
      "byteLength": 35304,
      "uri": "scene.bin"
    }
  ],
  "extensionsUsed": [
    "KHR_materials_clearcoat"
  ],
  "images": [
    {
      "uri": "textures/frame_baseColor.png"
    },
    {
      "uri": "textures/glass_baseColor.png"
    }
  ],
  "materials": [
    {
      "doubleSided": true,
      "extensions": {
        "KHR_materials_clearcoat": {
          "clearcoatFactor": 1.0,
          "clearcoatRoughnessFactor": 0.0
        }
      },
      "name": "frame",
      "pbrMetallicRoughness": {
        "baseColorTexture": {
          "index": 0
        },
        "metallicFactor": 0.08683247298883072,
        "roughnessFactor": 0.0011415525114154557
      }
    },
    {
      "alphaMode": "BLEND",
      "doubleSided": true,
      "extensions": {
        "KHR_materials_clearcoat": {
          "clearcoatFactor": 1.0,
          "clearcoatRoughnessFactor": 0.04
        }
      },
      "name": "glass",
      "pbrMetallicRoughness": {
        "baseColorFactor": [
          1.0,
          1.0,
          1.0,
          0.8772549842219507
        ],
        "baseColorTexture": {
          "index": 1
        },
        "roughnessFactor": 0.0
      }
    }
  ],
  "meshes": [
    {
      "name": "Party_Glasses_Star_frame_0",
      "primitives": [
        {
          "attributes": {
            "NORMAL": 1,
            "POSITION": 0,
            "TEXCOORD_0": 2
          },
          "indices": 3,
          "material": 0,
          "mode": 4
        }
      ]
    },
    {
      "name": "Party_Glasses_Star_glass_0",
      "primitives": [
        {
          "attributes": {
            "NORMAL": 5,
            "POSITION": 4,
            "TEXCOORD_0": 6
          },
          "indices": 7,
          "material": 1,
          "mode": 4
        }
      ]
    }
  ],
  "nodes": [
    {
      "children": [
        1
      ],
      "matrix": [
        1.0,
        0.0,
        0.0,
        0.0,
        0.0,
        2.220446049250313e-16,
        -1.0,
        0.0,
        0.0,
        1.0,
        2.220446049250313e-16,
        0.0,
        0.0,
        0.0,
        0.0,
        1.0
      ],
      "name": "Sketchfab_model"
    },
    {
      "children": [
        2
      ],
      "matrix": [
        1.0,
        0.0,
        0.0,
        0.0,
        0.0,
        0.0,
        1.0,
        0.0,
        0.0,
        -1.0,
        0.0,
        0.0,
        0.0,
        0.0,
        0.0,
        1.0
      ],
      "name": "Party_Glasses_Heart.fbx"
    },
    {
      "children": [
        3
      ],
      "name": "RootNode"
    },
    {
      "children": [
        4,
        5
      ],
      "matrix": [
        100.0,
        0.0,
        0.0,
        0.0,
        0.0,
        -4.371139006309477e-06,
        -99.9999999999999,
        0.0,
        0.0,
        99.9999999999999,
        -4.371139006309477e-06,
        0.0,
        0.0,
        0.0,
        0.0,
        1.0
      ],
      "name": "Party_Glasses_Star"
    },
    {
      "mesh": 0,
      "name": "Party_Glasses_Star_frame_0"
    },
    {
      "mesh": 1,
      "name": "Party_Glasses_Star_glass_0"
    }
  ],
  "samplers": [
    {
      "magFilter": 9729,
      "minFilter": 9987,
      "wrapS": 10497,
      "wrapT": 10497
    }
  ],
  "scene": 0,
  "scenes": [
    {
      "name": "Sketchfab_Scene",
      "nodes": [
        0
      ]
    }
  ],
  "textures": [
    {
      "sampler": 0,
      "source": 0
    },
    {
      "sampler": 0,
      "source": 1
    }
  ]
}
